<svg width="284" height="284" viewBox="0 0 284 284" fill="none" xmlns="http://www.w3.org/2000/svg">
<g filter="url(#filter0_b_9_60)">
<circle cx="142" cy="142" r="142" fill="url(#paint0_linear_9_60)" fill-opacity="0.5"/>
</g>
<path d="M131.5 197.625C124.625 197.625 118.74 195.226 113.844 190.428C108.948 185.63 106.5 179.863 106.5 173.125C106.5 166.388 108.948 160.62 113.844 155.822C118.74 151.024 124.625 148.625 131.5 148.625C133.896 148.625 136.083 148.931 138.063 149.544C140.146 150.054 142.125 150.871 144 151.994V87.375H181.5V111.875H156.5V173.125C156.5 179.863 154.052 185.63 149.156 190.428C144.26 195.226 138.375 197.625 131.5 197.625Z" fill="#F8C7F1"/>
<defs>
<filter id="filter0_b_9_60" x="-20" y="-20" width="324" height="324" filterUnits="userSpaceOnUse" color-interpolation-filters="sRGB">
<feFlood flood-opacity="0" result="BackgroundImageFix"/>
<feGaussianBlur in="BackgroundImageFix" stdDeviation="10"/>
<feComposite in2="SourceAlpha" operator="in" result="effect1_backgroundBlur_9_60"/>
<feBlend mode="normal" in="SourceGraphic" in2="effect1_backgroundBlur_9_60" result="shape"/>
</filter>
<linearGradient id="paint0_linear_9_60" x1="142" y1="0" x2="142" y2="284" gradientUnits="userSpaceOnUse">
<stop stop-color="#CC00FF"/>
<stop offset="1" stop-color="#FF038E"/>
</linearGradient>
</defs>
</svg>
