<svg width="44" height="41" viewBox="0 0 44 41" fill="none" xmlns="http://www.w3.org/2000/svg">
<path d="M2 4.00001V16M2 16H14M2 16L11.28 7.28C14.0418 4.52285 17.6249 2.73794 21.4894 2.19424C25.3538 1.65053 29.2903 2.37747 32.7057 4.26553C36.1211 6.15359 38.8303 9.10049 40.4252 12.6622C42.0202 16.2239 42.4144 20.2075 41.5484 24.0127C40.6825 27.818 38.6034 31.2387 35.6243 33.7595C32.6452 36.2803 28.9275 37.7647 25.0314 37.9889C21.1354 38.2132 17.272 37.1651 14.0233 35.0028C10.7747 32.8404 8.31679 29.6808 7.02 26" stroke="#F8C7F1" stroke-width="4" stroke-linecap="round" stroke-linejoin="round"/>
</svg>
